<?xml version="1.0" standalone="no"?>
<!DOCTYPE svg PUBLIC "-//W3C//DTD SVG 20010904//EN"
 "http://www.w3.org/TR/2001/REC-SVG-20010904/DTD/svg10.dtd">
<svg version="1.0" xmlns="http://www.w3.org/2000/svg"
 width="514.000000pt" height="514.000000pt" viewBox="0 0 514.000000 514.000000"
 preserveAspectRatio="xMidYMid meet">
<metadata>
Created by potrace 1.11, written by Peter Selinger 2001-2013
</metadata>
<g transform="translate(0.000000,514.000000) scale(0.100000,-0.100000)"
fill="#000000" stroke="none">
<path d="M4295 4888 c-79 -10 -189 -64 -247 -122 -178 -176 -180 -459 -5 -636
84 -85 195 -131 316 -132 192 -1 362 120 427 304 20 56 26 179 12 237 -56 234
-266 379 -503 349z"/>
<path d="M2558 4660 c-21 -5 -56 -21 -78 -35 -40 -25 -878 -858 -915 -910 -56
-78 -68 -212 -26 -295 27 -53 84 -115 126 -138 83 -45 212 -43 292 4 23 13
193 175 377 359 184 184 337 335 340 335 3 0 49 -32 103 -71 122 -88 115 -83
250 -180 l113 -81 -1461 -1460 c-1134 -1134 -1466 -1473 -1487 -1512 -36 -70
-38 -189 -3 -256 79 -154 262 -216 411 -140 23 12 395 376 924 905 l886 886
235 -236 c129 -129 235 -238 235 -241 0 -3 -194 -199 -430 -436 -488 -488
-484 -482 -484 -613 0 -67 5 -88 26 -131 74 -143 228 -201 381 -144 52 20 97
62 614 579 626 625 617 614 618 741 0 132 -3 136 -408 542 -197 196 -357 359
-357 362 0 3 106 112 235 242 l235 236 0 -102 c0 -55 5 -122 12 -148 27 -109
111 -190 228 -219 19 -5 328 -9 685 -8 l650 1 55 27 c68 34 88 50 126 107 115
170 22 410 -176 456 -19 4 -246 8 -505 8 l-470 1 -5 340 -5 340 -27 50 c-37
70 -76 104 -288 249 -102 70 -192 132 -200 139 -9 7 -51 36 -95 66 -44 30
-172 118 -285 196 -113 78 -225 153 -250 165 -50 26 -143 35 -202 20z"/>
<path d="M422 4439 c-67 -14 -108 -58 -118 -126 -7 -54 14 -103 61 -139 l38
-29 421 0 c402 0 423 1 455 20 55 32 76 69 76 130 0 61 -21 98 -76 130 -32 18
-54 19 -430 20 -218 0 -410 -2 -427 -6z"/>
<path d="M86 3825 c-59 -30 -81 -66 -80 -131 0 -62 21 -97 75 -129 32 -19 54
-20 434 -20 220 -1 417 3 438 8 46 12 94 64 103 114 10 53 -13 110 -59 147
l-38 30 -417 1 c-400 1 -418 0 -456 -20z"/>
<path d="M422 3239 c-130 -26 -163 -184 -57 -265 l38 -29 421 0 c402 0 422 1
455 20 55 32 76 69 76 130 -1 62 -22 98 -76 130 -32 18 -54 19 -430 20 -218 0
-410 -2 -427 -6z"/>
</g>
</svg>
